<svg width="40" height="40" viewBox="0 0 40 40" fill="none" xmlns="http://www.w3.org/2000/svg">
<path d="M31.5832 31.5002C32.5998 31.5002 33.5749 31.904 34.2937 32.6229C35.0126 33.3418 35.4165 34.3168 35.4165 35.3335C35.4165 36.3502 35.0126 37.3252 34.2937 38.0441C33.5749 38.763 32.5998 39.1668 31.5832 39.1668C29.4557 39.1668 27.7498 37.4418 27.7498 35.3335C27.7498 33.206 29.4557 31.5002 31.5832 31.5002ZM0.916504 0.833496H7.184L8.98567 4.66683H37.3332C37.8415 4.66683 38.329 4.86876 38.6885 5.22821C39.0479 5.58765 39.2498 6.07516 39.2498 6.5835C39.2498 6.90933 39.154 7.23516 39.0198 7.54183L32.1582 19.9427C31.5065 21.1118 30.2415 21.9168 28.804 21.9168H14.5248L12.7998 25.041L12.7423 25.271C12.7423 25.3981 12.7928 25.52 12.8827 25.6098C12.9725 25.6997 13.0944 25.7502 13.2215 25.7502H35.4165V29.5835H12.4165C10.289 29.5835 8.58317 27.8585 8.58317 25.7502C8.58317 25.0793 8.75567 24.4468 9.04317 23.9102L11.6498 19.2143L4.74984 4.66683H0.916504V0.833496ZM12.4165 31.5002C13.4332 31.5002 14.4082 31.904 15.1271 32.6229C15.846 33.3418 16.2498 34.3168 16.2498 35.3335C16.2498 36.3502 15.846 37.3252 15.1271 38.0441C14.4082 38.763 13.4332 39.1668 12.4165 39.1668C10.289 39.1668 8.58317 37.4418 8.58317 35.3335C8.58317 33.206 10.289 31.5002 12.4165 31.5002ZM29.6665 18.0835L34.9948 8.50016H10.7682L15.2915 18.0835H29.6665Z" fill="black"/>
</svg>
